<?xml version="1.0" standalone="no"?>
<!DOCTYPE svg PUBLIC "-//W3C//DTD SVG 20010904//EN"
 "http://www.w3.org/TR/2001/REC-SVG-20010904/DTD/svg10.dtd">
<svg version="1.0" xmlns="http://www.w3.org/2000/svg"
 width="225.000000pt" height="225.000000pt" viewBox="0 0 225.000000 225.000000"
 preserveAspectRatio="xMidYMid meet">

<g transform="translate(0.000000,225.000000) scale(0.100000,-0.100000)"
fill="#000000" stroke="none">
<path d="M905 2200 c-413 -89 -729 -386 -841 -791 -32 -117 -44 -335 -24 -456
74 -467 446 -839 912 -913 126 -20 352 -8 462 24 201 60 348 146 487 285 534
534 384 1431 -295 1761 -159 77 -259 101 -451 106 -132 3 -176 0 -250 -16z
m406 -15 c357 -62 665 -308 809 -645 62 -148 75 -217 75 -415 0 -157 -3 -191
-23 -265 -106 -387 -396 -676 -785 -782 -71 -19 -107 -22 -262 -22 -194 0
-250 10 -402 70 -336 132 -595 452 -658 813 -103 588 299 1150 894 1251 78 13
264 11 352 -5z"/>
<path d="M945 2174 c-220 -39 -413 -140 -571 -298 -138 -137 -231 -301 -286
-506 -32 -115 -31 -371 1 -495 53 -202 140 -355 285 -501 141 -142 294 -230
485 -282 85 -23 115 -25 266 -26 153 0 180 3 267 26 194 53 357 148 495 291
203 209 303 455 303 744 0 450 -287 853 -714 1002 -167 59 -362 75 -531 45z
m126 -74 c22 -12 26 -59 7 -78 -7 -7 -21 -12 -33 -12 -29 0 -45 19 -45 52 0
39 34 57 71 38z m195 -50 c8 -25 14 -46 14 -47 0 -2 -9 -3 -20 -3 -13 0 -20 7
-20 20 0 11 -7 20 -15 20 -9 0 -12 -6 -9 -15 4 -10 0 -15 -15 -15 -26 0 -26 3
1 51 12 22 28 38 36 37 8 -2 21 -23 28 -48z m-376 20 c0 -21 -4 -25 -21 -22
-9 2 -20 -1 -23 -7 -10 -16 5 -41 26 -41 10 0 16 5 13 10 -3 6 1 10 10 10 23
0 15 -31 -11 -41 -56 -20 -87 61 -34 88 30 15 40 16 40 3z m550 -18 c20 -16
21 -20 8 -32 -8 -8 -12 -24 -10 -38 6 -33 -20 -25 -29 9 -7 23 -7 23 -8 2 -1
-25 -8 -28 -31 -12 -11 8 -12 12 -3 15 7 3 15 21 19 40 7 38 21 42 54 16z
m-714 -101 c-9 -14 -33 -14 -41 -1 -4 6 -1 18 6 26 11 13 14 13 27 0 8 -8 11
-19 8 -25z m864 3 c0 -19 -28 -30 -42 -16 -8 8 -8 15 1 26 14 17 41 10 41 -10z
m140 -71 c0 -18 -10 -16 -26 5 -12 16 -14 16 -30 0 -20 -19 -12 -53 11 -44 16
6 21 -9 7 -18 -13 -8 -52 23 -52 40 0 8 9 23 20 34 17 17 24 18 45 8 14 -6 25
-17 25 -25z m-1146 8 c32 -35 -3 -89 -41 -65 -32 20 -39 41 -19 63 24 26 38
26 60 2z m596 -243 l0 -172 -55 54 -55 54 0 111 c0 62 3 115 7 118 3 4 28 7
55 7 l48 0 0 -172z m-750 132 c0 -5 -6 -10 -12 -10 -7 0 0 -12 15 -25 16 -14
26 -29 22 -34 -3 -5 -18 2 -32 15 -25 23 -28 24 -33 8 -5 -13 -9 -14 -14 -5
-5 8 1 22 15 37 24 25 39 31 39 14z m1431 -12 c10 -19 8 -25 -15 -45 -21 -18
-32 -21 -45 -13 -27 14 -32 35 -15 59 20 28 60 27 75 -1z m-454 -563 c-2 -5
-28 -11 -58 -13 l-54 -3 -255 255 -254 256 34 35 34 35 278 -277 c153 -153
277 -282 275 -288z m-64 363 c-69 -70 -130 -125 -135 -122 -4 3 -8 33 -8 67
l0 62 97 97 97 98 38 -37 38 -37 -127 -128z m617 64 c0 -4 -13 -13 -30 -19
-32 -12 -41 -33 -13 -33 14 0 15 -2 4 -12 -10 -11 -15 -9 -27 6 -19 27 -18 28
19 52 30 20 47 22 47 6z m-1625 -13 c39 -24 37 -35 -10 -42 -28 -4 -29 -5 -7
-12 12 -4 22 -14 22 -21 0 -19 -7 -18 -37 6 -14 11 -29 17 -34 14 -5 -3 -9 2
-9 10 0 10 9 16 23 16 28 0 61 19 37 21 -8 1 -18 1 -22 0 -5 0 -8 6 -8 14 0
19 2 19 45 -6z m742 -446 l-37 -38 -205 205 -205 204 37 38 37 38 206 -205
205 -205 -38 -37z m416 245 l-127 -128 -38 37 -38 37 127 128 127 128 38 -37
38 -37 -127 -128z m552 22 c-11 -18 -23 -10 -17 12 3 14 2 19 -6 14 -7 -4 -12
-15 -13 -24 0 -11 -3 -12 -6 -4 -2 6 -12 12 -20 12 -13 0 -13 -3 -3 -15 14
-17 5 -35 -9 -19 -11 11 -26 62 -16 52 10 -9 65 12 65 25 1 7 8 0 16 -16 8
-15 12 -32 9 -37z m-1815 11 c0 -5 -6 -11 -12 -14 -7 -2 -10 -8 -6 -12 4 -4
14 -2 23 5 12 10 15 10 15 -4 0 -9 5 -16 11 -16 6 0 9 7 5 15 -3 9 0 15 9 15
18 0 18 -1 5 -35 -8 -22 -13 -24 -29 -15 -11 5 -29 10 -40 10 -24 0 -24 0 -11
34 9 25 30 36 30 17z m449 -115 c71 -71 121 -129 117 -135 -4 -6 -30 -11 -59
-11 l-52 0 -102 102 -103 102 32 33 c18 18 34 33 38 33 3 0 61 -56 129 -124z
m1058 92 l33 -32 -202 -203 -202 -202 -37 32 -36 32 201 203 c110 111 203 202
205 202 3 0 20 -14 38 -32z m-657 -53 l34 -35 -27 -27 -27 -28 -37 37 -37 37
24 26 c13 14 26 25 30 25 3 0 21 -16 40 -35z m75 -124 c-20 -20 -29 -23 -42
-15 -35 22 -39 42 -13 69 l24 25 28 -27 28 -27 -25 -25z m923 57 c14 -14 16
-58 2 -58 -5 0 -9 10 -7 23 2 17 -3 22 -23 22 -16 0 -26 -6 -28 -19 -3 -14 0
-17 12 -13 10 4 16 1 16 -8 0 -20 -36 -19 -44 1 -9 24 -8 31 10 48 18 19 45
21 62 4z m-1845 -30 c9 0 17 -6 17 -15 0 -10 -6 -13 -16 -9 -9 3 -29 6 -45 6
-19 0 -29 5 -29 15 0 12 6 14 28 8 15 -3 35 -6 45 -5z m726 -86 c3 -1 -87 -95
-199 -207 l-204 -205 -38 37 -38 37 202 203 202 203 36 -33 c19 -17 37 -33 39
-35z m271 33 l34 -35 -102 -103 -102 -102 -37 38 -38 37 100 100 c55 55 102
100 105 100 3 0 21 -16 40 -35z m-510 -100 l-54 -55 -118 0 -118 0 0 48 c0 27
3 52 7 55 3 4 81 7 172 7 l165 0 -54 -55z m610 0 l-54 -55 -25 25 -25 25 29
30 c24 26 36 30 79 30 l50 0 -54 -55z m490 0 l0 -55 -172 0 -172 0 54 55 54
55 118 0 118 0 0 -55z m-820 20 l23 -25 -23 -25 c-19 -20 -33 -25 -72 -25 -26
0 -48 3 -48 7 0 9 82 93 90 93 4 0 17 -11 30 -25z m-770 -7 c0 -5 0 -11 0 -15
-1 -5 -11 -7 -23 -5 -17 2 -15 -1 8 -11 l30 -14 -30 -17 -30 -17 28 6 c18 4
27 1 27 -7 0 -9 -15 -13 -45 -13 -53 0 -58 15 -12 37 l32 15 -32 7 c-50 11
-45 41 7 41 22 0 40 -3 40 -7z m1870 -20 c0 -8 -15 -13 -40 -13 -25 0 -40 5
-40 13 0 7 15 12 40 12 25 0 40 -5 40 -12z m-513 -455 l-37 -38 -205 205 -205
204 37 38 37 38 206 -205 205 -205 -38 -37z m-372 137 l249 -250 -34 -35 -34
-35 -278 277 c-153 153 -278 281 -278 285 0 5 28 8 63 8 l62 0 250 -250z m460
150 l99 -100 -34 -35 -34 -35 -128 127 c-70 70 -128 131 -128 135 0 5 28 8 63
8 l62 0 100 -100z m-520 46 l24 -24 -28 -26 -27 -26 -24 25 -23 25 23 25 c13
14 25 25 27 25 2 0 15 -11 28 -24z m929 -28 c15 -24 -3 -52 -36 -56 -32 -4
-52 20 -44 53 6 22 12 26 38 23 17 -2 36 -11 42 -20z m-1251 -210 l-127 -128
-38 37 -38 37 127 128 127 128 38 -37 38 -37 -127 -128z m402 102 l-25 -24
-35 34 -35 34 26 27 26 27 33 -37 34 -36 -24 -25z m-975 65 c0 -10 -10 -15
-29 -15 -17 0 -33 -5 -36 -10 -8 -13 -25 -3 -25 15 0 8 6 12 13 9 7 -2 24 0
38 5 34 14 39 13 39 -4z m1730 -114 c0 -5 -7 -12 -16 -15 -8 -3 -12 -11 -9
-17 5 -7 13 -5 24 5 31 29 58 14 46 -24 -7 -21 -35 -28 -35 -9 0 6 -6 9 -13 6
-24 -9 -40 9 -33 37 6 24 36 38 36 17z m-1686 -33 c17 -24 22 -53 8 -44 -5 3
-22 -4 -39 -14 l-31 -19 -11 31 c-14 38 -14 34 5 52 22 22 50 20 68 -6z m754
-39 l3 -54 -104 -103 -103 -102 -34 35 -34 35 124 125 c69 69 129 124 135 122
5 -2 11 -28 13 -58z m122 -191 l0 -118 -55 0 -55 0 0 172 0 172 55 -54 55 -54
0 -118z m-800 83 c0 -5 -4 -21 -10 -35 -11 -29 3 -36 18 -10 5 9 14 14 21 10
16 -10 14 -26 -4 -26 -8 0 -24 -9 -35 -20 -25 -25 -36 -7 -21 33 12 30 -2 38
-17 11 -9 -17 -32 -12 -32 7 0 6 4 8 8 5 4 -2 19 4 32 15 28 21 40 24 40 10z
m1496 -111 c12 0 12 -4 -2 -25 -27 -41 -84 -28 -84 19 0 11 7 28 16 37 16 18
17 17 36 -6 11 -14 26 -25 34 -25z m-1362 -39 c16 -18 15 -20 -15 -51 l-32
-31 -21 20 c-16 16 -18 23 -8 33 9 9 12 8 12 -5 0 -9 5 -17 11 -17 6 0 8 7 5
15 -4 11 0 15 11 13 9 -2 18 3 20 10 3 6 -3 12 -12 12 -9 0 -13 5 -10 10 9 15
20 12 39 -9z m1215 -93 c19 -11 19 -14 4 -30 -17 -19 -43 -24 -43 -8 0 6 3 9
8 8 4 -2 7 2 7 7 0 6 -6 8 -14 7 -12 -3 -12 -1 -3 11 6 7 9 17 5 20 -12 12
-23 7 -23 -10 0 -13 -3 -14 -12 -5 -8 8 -5 16 13 31 23 19 24 19 31 1 4 -11
16 -25 27 -32z m-1109 -20 c0 -17 3 -18 15 -8 26 22 34 0 10 -26 -14 -15 -22
-30 -19 -35 9 -15 -13 -10 -36 9 -21 17 -21 19 -6 34 9 9 16 26 16 38 0 12 5
18 10 15 6 -3 10 -15 10 -27z m832 -123 c-2 -25 -9 -45 -14 -45 -5 0 -23 14
-39 32 -23 24 -27 33 -17 39 8 6 14 3 16 -6 5 -22 32 -18 32 5 0 11 6 20 13
20 8 0 11 -14 9 -45z m-514 3 c18 -18 15 -42 -7 -62 -38 -34 -86 8 -61 54 12
22 49 27 68 8z m156 -56 c-6 -30 -4 -34 10 -29 9 4 16 2 16 -3 0 -6 -18 -10
-40 -10 -38 0 -52 12 -30 25 6 3 10 1 10 -4 0 -6 5 -11 11 -11 8 0 10 14 6 39
-4 31 -2 38 9 34 11 -4 13 -15 8 -41z m179 29 c-3 -10 0 -28 6 -40 10 -18 9
-21 -6 -21 -13 0 -18 8 -19 30 -1 37 -12 50 -24 30 -8 -13 -10 -12 -10 3 0 12
8 17 29 17 24 0 28 -4 24 -19z"/>
<path d="M1032 2077 c-14 -17 -6 -47 13 -47 19 0 25 26 11 45 -10 15 -14 15
-24 2z"/>
<path d="M1410 2030 c0 -5 5 -10 10 -10 6 0 10 5 10 10 0 6 -4 10 -10 10 -5 0
-10 -4 -10 -10z"/>
<path d="M534 1876 c-8 -21 3 -36 27 -36 15 0 20 6 17 22 -4 27 -35 37 -44 14z"/>
<path d="M1806 1765 c-9 -9 -16 -21 -16 -26 0 -18 32 -22 48 -5 15 15 15 17 1
32 -15 14 -18 14 -33 -1z"/>
<path d="M2024 965 c-8 -20 4 -35 27 -35 23 0 26 35 3 44 -22 8 -24 8 -30 -9z"/>
<path d="M2000 770 c0 -5 5 -10 10 -10 6 0 10 5 10 10 0 6 -4 10 -10 10 -5 0
-10 -4 -10 -10z"/>
<path d="M247 774 c-8 -8 -10 -44 -2 -44 16 0 55 25 52 34 -4 13 -40 20 -50
10z"/>
<path d="M1806 524 c-4 -9 -1 -23 5 -30 13 -16 19 -17 39 -4 12 7 12 12 -4 29
-23 25 -32 26 -40 5z"/>
<path d="M595 331 c-6 -11 9 -23 19 -14 9 9 7 23 -3 23 -6 0 -12 -4 -16 -9z"/>
<path d="M890 235 c-16 -19 -5 -47 17 -43 22 4 29 43 9 51 -8 3 -20 -1 -26 -8z"/>
</g>
</svg>
